<?xml version="1.0" encoding="utf-8"?>
<!-- Generator: Adobe Illustrator 24.2.3, SVG Export Plug-In . SVG Version: 6.00 Build 0)  -->
<svg version="1.1" id="Ebene_1" xmlns="http://www.w3.org/2000/svg" xmlns:xlink="http://www.w3.org/1999/xlink" x="0px" y="0px"
	 viewBox="0 0 558.93 208.55" style="enable-background:new 0 0 558.93 208.55;" xml:space="preserve">
<style type="text/css">
	.st0{fill:#FFFFFF;}
</style>
<g>
	<path class="st0" d="M33.45,191.87c0-51.49,0-102.98,0-154.48c162.34,0,324.68,0,487.02,0c0,51.49,0,102.98,0,154.48
		C358.13,191.87,195.79,191.87,33.45,191.87z M424.01,137.7c0.06,0.1,0.13,0.19,0.18,0.3c1.9,4.02,4.87,7.09,8.62,9.37
		c7.66,4.66,16,5.45,24.57,3.69c12.34-2.54,20.63-10.07,25.24-21.63c3.78-9.5,4.16-19.36,2.2-29.31c-1.28-6.51-3.98-12.4-8.46-17.37
		c-6.27-6.96-14.15-10.79-23.48-11.37c-12.17-0.75-21.93,3.57-28.55,14.12c-0.15,0.24-0.33,0.46-0.49,0.69
		c-0.08-0.03-0.16-0.06-0.24-0.1c0.23-4.63,0.45-9.27,0.68-13.83c-2.59,0.25-5.13,0.68-7.68,0.68c-2.57,0-5.14-0.41-7.82-0.66
		c0.86,39.51,1.59,79.09-0.96,118.7c5.69-1.2,11.21-1.22,16.8-0.01C423.5,173.2,423.92,155.48,424.01,137.7z M138.6,149.46
		c-16.52-36.87-33.08-73.48-47.64-111.05c-2.25,0.7-4.54,0.56-6.83,0.11c-0.62-0.12-0.73,0.27-0.9,0.7
		c-2.35,5.73-4.66,11.48-7.08,17.19c-13.07,30.8-26.93,61.25-40.85,91.66c-0.18,0.39-0.36,0.79-0.66,1.46
		c4.61-1.21,9.02-1.46,13.43-0.01c0.13-0.43,0.23-0.69,0.3-0.96c3.58-13.68,8.43-26.9,14.16-39.81c0.28-0.63,0.58-0.89,1.31-0.89
		c12.8,0.03,25.61,0.02,38.41,0.01c0.55,0,0.91,0.08,1.18,0.66c4.94,10.79,9.57,21.69,13.25,32.99c0.85,2.61,1.65,5.23,2.51,7.95
		C125.62,148.31,132.04,148.09,138.6,149.46z M306.93,112.82c0.11,4,0.52,7.95,1.52,11.84c2.69,10.49,8.7,18.38,18.66,22.83
		c11.42,5.09,23.26,5.61,35.14,1.85c11.1-3.51,19.05-10.72,23.44-21.56c3.64-8.97,4.18-18.28,2-27.68
		c-2.71-11.64-9.34-20.32-20.49-24.96c-11.21-4.66-22.82-5.07-34.41-1.53c-10.07,3.08-17.49,9.48-21.98,19.08
		C307.83,99.06,306.83,105.84,306.93,112.82z M164.26,110.94c9.58,0,19.02,0,28.46,0c9.47,0,18.94,0,28.42,0
		c0.04-0.2,0.08-0.32,0.08-0.44c0.15-6.47-0.39-12.85-2.59-18.98c-3.02-8.43-8.57-14.47-17.08-17.55c-7.47-2.7-15.2-3.04-22.96-1.76
		c-13.54,2.24-22.78,9.85-27.45,22.79c-3.14,8.72-3.6,17.72-1.85,26.77c2.76,14.29,10.85,24,25.06,28.1
		c7.82,2.25,15.77,2.2,23.72,0.71c6.82-1.28,12.97-4.05,18.11-8.82c0.33-0.3,0.56-0.82,0.62-1.27c0.16-1.22,0.17-2.46,0.32-3.69
		c0.2-1.68,0.46-3.36,0.7-5.04c-1.72-0.59-1.7-0.58-2.79,0.77c-0.67,0.84-1.36,1.67-2.11,2.44c-6.28,6.49-14.04,9.22-22.96,9.09
		c-8.41-0.11-15.12-3.48-20.05-10.29C164.98,126.96,164.25,119.11,164.26,110.94z M286.91,76.66c-0.38-0.21-0.62-0.35-0.87-0.48
		c-5.61-2.95-11.61-4.49-17.93-4.73c-5.72-0.22-11.32,0.37-16.61,2.79c-12.44,5.68-15.47,20.14-11.34,29.33
		c2.23,4.97,6.12,8.3,11,10.38c4.15,1.77,8.52,3.01,12.74,4.63c3.24,1.24,6.46,2.57,9.57,4.11c2.34,1.15,4.05,3.1,4.67,5.72
		c1.6,6.73-0.65,13.12-8.33,15.78c-3.42,1.18-6.94,1.45-10.5,0.94c-7.05-1.01-12.52-4.39-15.82-10.88c-0.4-0.78-0.74-1.59-1.1-2.4
		c-0.25,0.06-0.43,0.12-0.62,0.14c-0.94,0.08-1.37,0.48-1.5,1.51c-0.21,1.65-0.6,3.3-1.06,4.91c-0.65,2.23-1.43,4.42-2.19,6.72
		c0.48,0.29,1.03,0.67,1.61,0.98c10.29,5.52,21.14,6.9,32.48,4.23c5.86-1.38,10.89-4.27,14.64-9.09c4.18-5.37,5.58-11.54,4.96-18.22
		c-0.36-3.81-1.61-7.28-4.27-10.13c-2.68-2.88-6.06-4.69-9.73-5.89c-4.08-1.34-8.24-2.46-12.37-3.65c-3.52-1.02-6.86-2.38-9.73-4.76
		c-6.36-5.28-5.65-16.56,3.68-19.76c3.15-1.08,6.38-1.23,9.66-0.94c6.81,0.61,11.67,4.63,13.51,11.2c0.08,0.27,0.17,0.54,0.28,0.89
		c0.31,0,0.63,0,0.94,0c0.34,0,0.67,0,1.08,0C284.16,85.32,285.25,80.94,286.91,76.66z M165.23,51.82c0,1.69,0,3.26,0,4.87
		c14.62,0,29.17,0,43.74,0c0-1.66,0-3.25,0-4.87C194.36,51.82,179.83,51.82,165.23,51.82z M509.19,151.09
		c5.78-0.03,10.37-4.66,10.33-10.43c-0.04-5.77-4.68-10.36-10.44-10.35c-5.75,0.01-10.33,4.66-10.31,10.45
		C498.79,146.56,503.39,151.12,509.19,151.09z"/>
	<path d="M424.01,137.7c-0.09,17.78-0.51,35.5,0.6,53.29c-5.59-1.21-11.11-1.18-16.8,0.01c2.55-39.61,1.82-79.19,0.96-118.7
		c2.68,0.24,5.25,0.66,7.82,0.66c2.54,0,5.09-0.43,7.68-0.68c-0.22,4.56-0.45,9.19-0.68,13.83c0.08,0.03,0.16,0.06,0.24,0.1
		c0.16-0.23,0.34-0.45,0.49-0.69c6.62-10.55,16.38-14.88,28.55-14.12c9.33,0.58,17.21,4.41,23.48,11.37
		c4.48,4.97,7.18,10.86,8.46,17.37c1.96,9.96,1.58,19.81-2.2,29.31c-4.61,11.56-12.9,19.1-25.24,21.63
		c-8.58,1.76-16.92,0.97-24.57-3.69c-3.75-2.29-6.72-5.36-8.62-9.37C424.13,137.89,424.07,137.8,424.01,137.7z M423.55,112.78
		c0.04,3.82,0.28,7.91,1.07,11.97c1.8,9.2,9.55,18.44,20.55,18.97c7.07,0.35,13.22-1.52,17.8-7.24c1.69-2.12,2.93-4.5,3.88-7.03
		c1.95-5.22,2.65-10.66,2.76-16.19c0.12-6.11-0.4-12.14-2.36-17.97c-1.59-4.74-3.96-9-8-12.09c-6.65-5.1-13.94-5.11-21.27-1.93
		c-6.41,2.79-10.28,8.05-12.38,14.61C423.87,101.27,423.63,106.87,423.55,112.78z"/>
	<path d="M138.6,149.46c-6.56-1.37-12.98-1.14-19.41,0.01c-0.86-2.72-1.66-5.34-2.51-7.95c-3.68-11.29-8.31-22.2-13.25-32.99
		c-0.27-0.58-0.62-0.66-1.18-0.66c-12.8,0.01-25.61,0.02-38.41-0.01c-0.73,0-1.03,0.25-1.31,0.89
		c-5.73,12.91-10.58,26.13-14.16,39.81c-0.07,0.27-0.16,0.53-0.3,0.96c-4.41-1.45-8.82-1.2-13.43,0.01c0.3-0.67,0.48-1.06,0.66-1.46
		c13.92-30.42,27.78-60.87,40.85-91.66c2.42-5.7,4.73-11.46,7.08-17.19c0.17-0.43,0.28-0.82,0.9-0.7c2.29,0.45,4.58,0.58,6.83-0.11
		C105.51,75.98,122.08,112.59,138.6,149.46z M99.91,99.96C94.2,86.84,88.53,73.84,82.78,60.65c-5.6,13.2-11.12,26.22-16.68,39.31
		C77.43,99.96,88.6,99.96,99.91,99.96z"/>
	<path d="M306.93,112.82c-0.11-6.98,0.9-13.76,3.88-20.13c4.49-9.6,11.91-16,21.98-19.08c11.59-3.54,23.2-3.13,34.41,1.53
		c11.15,4.64,17.79,13.32,20.49,24.96c2.18,9.39,1.64,18.7-2,27.68c-4.39,10.84-12.34,18.05-23.44,21.56
		c-11.89,3.76-23.72,3.24-35.14-1.85c-9.97-4.44-15.98-12.33-18.66-22.83C307.46,120.77,307.05,116.82,306.93,112.82z
		 M323.12,111.06c0.11,2.09,0.17,4.18,0.35,6.25c0.47,5.3,1.64,10.41,3.99,15.23c7.84,16.12,26.65,15.47,35.52,6.79
		c4.08-4,6.55-8.87,8.02-14.3c1.72-6.34,2.05-12.79,1.47-19.3c-0.48-5.42-1.62-10.69-4.08-15.6c-2.8-5.56-6.92-9.63-13.02-11.43
		c-3.96-1.17-7.99-1.25-12.04-0.55c-8.02,1.39-13.34,6.17-16.57,13.45C324,97.79,323.19,104.36,323.12,111.06z"/>
	<path d="M164.26,110.94c-0.01,8.17,0.72,16.02,5.65,22.83c4.93,6.82,11.64,10.18,20.05,10.29c8.92,0.12,16.68-2.61,22.96-9.09
		c0.75-0.77,1.44-1.6,2.11-2.44c1.08-1.35,1.07-1.36,2.79-0.77c-0.23,1.68-0.5,3.35-0.7,5.04c-0.14,1.23-0.15,2.47-0.32,3.69
		c-0.06,0.45-0.3,0.97-0.62,1.27c-5.14,4.76-11.28,7.54-18.11,8.82c-7.95,1.49-15.9,1.54-23.72-0.71
		c-14.22-4.1-22.3-13.81-25.06-28.1c-1.75-9.05-1.29-18.05,1.85-26.77c4.66-12.93,13.9-20.55,27.45-22.79
		c7.76-1.28,15.49-0.94,22.96,1.76c8.51,3.07,14.06,9.12,17.08,17.55c2.2,6.14,2.74,12.52,2.59,18.98c0,0.12-0.05,0.24-0.08,0.44
		c-9.48,0-18.95,0-28.42,0C183.28,110.94,173.84,110.94,164.26,110.94z M205.32,104.23c0.01-0.23,0.03-0.41,0.03-0.59
		c-0.03-3.55-0.31-7.08-1.14-10.54c-0.72-2.97-1.8-5.79-3.6-8.3c-3.22-4.5-7.72-6.58-13.15-6.81c-6.68-0.29-12.46,1.65-16.69,7.06
		c-4.38,5.61-5.7,12.27-6.41,19.18C178.06,104.23,191.66,104.23,205.32,104.23z"/>
	<path d="M286.91,76.66c-1.66,4.28-2.75,8.66-3.16,13.3c-0.4,0-0.74,0-1.08,0c-0.31,0-0.62,0-0.94,0c-0.11-0.35-0.21-0.62-0.28-0.89
		c-1.84-6.57-6.7-10.59-13.51-11.2c-3.28-0.29-6.51-0.14-9.66,0.94c-9.34,3.2-10.05,14.48-3.68,19.76c2.86,2.38,6.2,3.74,9.73,4.76
		c4.13,1.19,8.29,2.3,12.37,3.65c3.67,1.21,7.04,3.01,9.73,5.89c2.66,2.86,3.91,6.33,4.27,10.13c0.62,6.68-0.77,12.85-4.96,18.22
		c-3.75,4.82-8.78,7.71-14.64,9.09c-11.33,2.67-22.19,1.29-32.48-4.23c-0.58-0.31-1.13-0.69-1.61-0.98
		c0.75-2.29,1.54-4.48,2.19-6.72c0.47-1.61,0.85-3.25,1.06-4.91c0.13-1.03,0.57-1.43,1.5-1.51c0.18-0.02,0.37-0.08,0.62-0.14
		c0.37,0.8,0.71,1.62,1.1,2.4c3.3,6.49,8.77,9.86,15.82,10.88c3.56,0.51,7.08,0.24,10.5-0.94c7.68-2.66,9.93-9.05,8.33-15.78
		c-0.62-2.61-2.33-4.56-4.67-5.72c-3.11-1.53-6.33-2.86-9.57-4.11c-4.22-1.62-8.59-2.86-12.74-4.63c-4.88-2.08-8.77-5.41-11-10.38
		c-4.13-9.19-1.1-23.66,11.34-29.33c5.29-2.41,10.89-3.01,16.61-2.79c6.32,0.24,12.32,1.79,17.93,4.73
		C286.29,76.31,286.53,76.45,286.91,76.66z"/>
	<path d="M165.23,51.82c14.6,0,29.13,0,43.74,0c0,1.62,0,3.21,0,4.87c-14.57,0-29.13,0-43.74,0
		C165.23,55.07,165.23,53.5,165.23,51.82z"/>
	<path d="M509.19,151.09c-5.8,0.03-10.39-4.53-10.42-10.33c-0.02-5.79,4.56-10.44,10.31-10.45c5.76-0.01,10.4,4.58,10.44,10.35
		C519.56,146.43,514.97,151.07,509.19,151.09z M509.23,132.19c-4.78-0.05-8.48,3.61-8.52,8.44c-0.04,4.87,3.53,8.57,8.33,8.64
		c4.82,0.06,8.52-3.64,8.53-8.54C517.58,135.93,513.98,132.23,509.23,132.19z"/>
	<path class="st0" d="M423.55,112.78c0.08-5.91,0.32-11.51,2.04-16.91c2.1-6.56,5.96-11.82,12.38-14.61
		c7.33-3.19,14.62-3.18,21.27,1.93c4.03,3.09,6.41,7.36,8,12.09c1.96,5.83,2.48,11.87,2.36,17.97c-0.11,5.53-0.81,10.97-2.76,16.19
		c-0.95,2.53-2.19,4.91-3.88,7.03c-4.58,5.73-10.72,7.59-17.8,7.24c-11-0.54-18.75-9.78-20.55-18.97
		C423.83,120.69,423.59,116.6,423.55,112.78z"/>
	<path class="st0" d="M99.91,99.96c-11.31,0-22.48,0-33.81,0c5.55-13.09,11.08-26.1,16.68-39.31C88.53,73.84,94.2,86.84,99.91,99.96
		z"/>
	<path class="st0" d="M323.12,111.06c0.07-6.7,0.88-13.27,3.63-19.46c3.23-7.27,8.55-12.05,16.57-13.45
		c4.05-0.7,8.08-0.62,12.04,0.55c6.09,1.8,10.22,5.87,13.02,11.43c2.47,4.91,3.61,10.18,4.08,15.6c0.58,6.51,0.25,12.96-1.47,19.3
		c-1.48,5.43-3.94,10.3-8.02,14.3c-8.86,8.68-27.68,9.33-35.52-6.79c-2.34-4.82-3.51-9.94-3.99-15.23
		C323.29,115.23,323.23,113.14,323.12,111.06z"/>
	<path class="st0" d="M205.32,104.23c-13.66,0-27.26,0-40.96,0c0.72-6.91,2.04-13.57,6.41-19.18c4.23-5.42,10.01-7.35,16.69-7.06
		c5.43,0.23,9.93,2.31,13.15,6.81c1.79,2.51,2.88,5.33,3.6,8.3c0.84,3.46,1.12,6.99,1.14,10.54
		C205.35,103.82,205.33,104,205.32,104.23z"/>
	<path class="st0" d="M509.23,132.19c4.75,0.05,8.35,3.74,8.33,8.54c-0.02,4.9-3.71,8.6-8.53,8.54c-4.8-0.06-8.37-3.76-8.33-8.64
		C500.75,135.8,504.45,132.14,509.23,132.19z M507.1,140.34c0.38,0.34,0.6,0.49,0.76,0.69c1.26,1.54,2.51,3.09,3.78,4.63
		c0.19,0.23,0.44,0.54,0.68,0.57c0.8,0.07,1.6,0.03,2.61,0.03c-1.78-2.04-3.41-3.9-5.12-5.85c0.74-0.2,1.36-0.31,1.94-0.53
		c1.28-0.48,1.92-1.46,1.83-2.69c-0.09-1.27-0.79-2.15-2.23-2.31c-2.12-0.23-4.26-0.25-6.44-0.36c0,3.99,0,7.8,0,11.65
		c0.74,0,1.48,0,2.18,0C507.1,144.3,507.1,142.48,507.1,140.34z"/>
	<path d="M507.1,140.34c0,2.14,0,3.96,0,5.85c-0.71,0-1.44,0-2.18,0c0-3.85,0-7.66,0-11.65c2.17,0.11,4.31,0.13,6.44,0.36
		c1.44,0.15,2.14,1.03,2.23,2.31c0.09,1.23-0.56,2.21-1.83,2.69c-0.58,0.22-1.2,0.33-1.94,0.53c1.7,1.95,3.33,3.81,5.12,5.85
		c-1,0-1.81,0.04-2.61-0.03c-0.24-0.02-0.49-0.34-0.68-0.57c-1.27-1.54-2.51-3.09-3.78-4.63
		C507.7,140.83,507.48,140.68,507.1,140.34z M507.12,139.99c1.14-0.27,2.19-0.43,3.18-0.77c0.75-0.26,1.05-0.97,1.01-1.77
		c-0.05-0.8-0.45-1.43-1.23-1.62c-0.93-0.23-1.89-0.31-2.96-0.47C507.12,136.95,507.12,138.32,507.12,139.99z"/>
	<path class="st0" d="M507.12,139.99c0-1.67,0-3.04,0-4.63c1.07,0.16,2.03,0.25,2.96,0.47c0.78,0.19,1.18,0.82,1.23,1.62
		c0.05,0.79-0.26,1.51-1.01,1.77C509.32,139.56,508.26,139.72,507.12,139.99z"/>
</g>
</svg>
